<svg width="767" height="916" viewBox="0 0 767 916" fill="none" xmlns="http://www.w3.org/2000/svg">
<path d="M64.3693 86.1688C68.5911 86.1688 71.2747 86.5854 72.4312 87.4072C73.6326 88.1728 74.239 89.6588 74.239 91.8654C74.239 94.072 73.6326 95.6819 72.4312 96.56C71.2747 97.3818 68.5911 97.7984 64.3693 97.7984H10.5857C8.60956 97.7984 7.10497 97.303 6.06073 96.3123C5.0165 95.3216 4.5 93.8355 4.5 91.8541C4.5 89.6588 5.10633 88.1728 6.30776 87.4072C7.50918 86.5854 10.2264 86.1688 14.4483 86.1688H33.0311V11.8772H14.4483C10.3387 11.8772 7.65515 11.4607 6.38635 10.6388C5.12878 9.7607 4.5 8.19583 4.5 5.93297C4.5 3.90653 5.0165 2.42047 6.06073 1.48606C7.10497 0.495353 8.6657 0 10.7542 0H68.2431C70.2192 0 71.7014 0.495353 72.6895 1.48606C73.7337 2.47676 74.2502 3.96282 74.2502 5.94423C74.2502 8.19583 73.6214 9.7607 72.3638 10.6388C71.1624 11.4607 68.5013 11.8772 64.3917 11.8772H45.8089V86.1688H64.3917H64.3693ZM146.785 86.1688H157.07C160.034 86.1688 162.145 86.6079 163.403 87.486C164.66 88.3642 165.289 89.8164 165.289 91.8541C165.289 94.1057 164.683 95.6706 163.481 96.5487C162.325 97.3706 159.754 97.7871 155.745 97.7871H131.324C129.347 97.7871 127.865 97.2918 126.888 96.3011C125.9 95.3104 125.406 93.8243 125.406 91.8429C125.406 89.6476 125.957 88.1615 127.046 87.3847C128.202 86.5629 130.392 86.1463 133.625 86.1463H135.186V11.8772H133.131C128.528 11.8772 125.395 11.4381 123.756 10.56C122.161 9.68189 121.375 8.13954 121.375 5.94423C121.375 3.90653 122.06 2.45425 123.43 1.57612C124.856 0.641707 127.135 0.16887 130.257 0.16887C130.257 0.16887 130.807 0.146354 131.896 0.0900641C132.997 0.033774 134.086 0.011258 135.186 0.011258H142.911C145.438 0.011258 147.189 0.315224 148.177 0.923157C149.222 1.4748 150.423 2.92708 151.793 5.29127L193.236 77.0273V11.8772H184.186C181.222 11.8772 179.055 11.4156 177.685 10.47C176.372 9.47925 175.709 7.97067 175.709 5.93297C175.709 3.68137 176.282 2.13902 177.438 1.31719C178.595 0.439063 180.998 0 184.681 0H208.282C210.259 0 211.707 0.495353 212.639 1.48606C213.627 2.47676 214.121 3.96282 214.121 5.94423C214.121 8.13954 213.515 9.68189 212.313 10.56C211.157 11.4381 209.023 11.8772 205.902 11.8772H204.914V94.9163C204.914 96.515 204.532 97.607 203.757 98.2149C203.05 98.8228 201.343 99.1268 198.66 99.1268C195.976 99.1268 194.303 98.9579 193.641 98.6315C193.034 98.3613 192.001 96.954 190.519 94.421L146.785 18.8009V86.1688ZM286.027 86.1688C287.779 86.3377 289.508 86.4728 291.203 86.5854C292.955 86.6417 294.662 86.6642 296.301 86.6642C309.786 86.6642 319.656 83.647 325.91 77.5902C332.209 71.5447 335.364 62.0091 335.364 48.9724C335.364 35.9356 332.209 26.3775 325.91 20.4446C319.611 14.4553 309.517 11.4607 295.65 11.4607C293.067 11.4607 291.102 11.4832 289.732 11.5395C288.419 11.5958 287.184 11.7083 286.027 11.8659V86.1576V86.1688ZM286.027 97.7984H269.331C267.298 97.7984 265.771 97.303 264.727 96.3123C263.739 95.3216 263.245 93.8355 263.245 91.8541C263.245 89.7151 263.818 88.2291 264.974 87.396C266.176 86.5741 268.432 86.1576 271.722 86.1576H273.204V11.8772H271.891C268.601 11.8772 266.321 11.4381 265.064 10.56C263.862 9.68189 263.256 8.13954 263.256 5.94423C263.256 3.90653 263.75 2.43173 264.738 1.48606C265.783 0.495353 267.366 0 269.51 0H304.217C317.871 0 328.751 4.4244 336.869 13.2732C344.987 22.0657 349.04 33.9654 349.04 48.9724C349.04 56.2788 347.861 63.0674 345.503 69.3381C343.202 75.6088 339.833 81.1027 335.387 85.8311C331.277 90.1204 326.258 93.2501 320.341 95.2315C314.48 97.1567 306.912 98.1136 297.648 98.1136C296.548 98.1136 294.684 98.0573 292.057 97.9447C289.474 97.8321 287.476 97.7759 286.05 97.7759L286.027 97.7984ZM401.948 97.7984H398.086C396.109 97.7984 394.605 97.303 393.561 96.3123C392.572 95.3216 392.078 93.8355 392.078 91.8541C392.078 89.6588 392.651 88.1728 393.808 87.396C395.009 86.5741 397.726 86.1576 401.948 86.1576H407.214V11.8772H401.948C397.839 11.8772 395.155 11.4607 393.886 10.6388C392.685 9.7607 392.078 8.19583 392.078 5.94423C392.078 3.90653 392.572 2.43173 393.561 1.48606C394.605 0.495353 396.166 0 398.254 0H469.879C471.743 0 473.136 0.574159 474.067 1.73373C475.056 2.83702 475.55 4.45817 475.55 6.5972V26.0623C475.55 28.9218 475.134 30.9032 474.315 31.9953C473.495 33.0986 472.013 33.6389 469.879 33.6389C467.634 33.6389 466.073 33.031 465.186 31.8264C464.366 30.6218 463.951 27.8974 463.951 23.6643V11.8772H420.205V39.662H441.752V35.2939C441.752 32.3218 442.134 30.2615 442.898 29.1132C443.717 27.9537 445.121 27.3795 447.097 27.3795C449.073 27.3795 450.331 28.0099 451.049 29.2708C451.813 30.4754 452.206 33.1211 452.206 37.1852V52.5186C452.206 56.6391 451.824 59.2847 451.049 60.433C450.286 61.5926 448.916 62.1668 446.94 62.1668C444.964 62.1668 443.594 61.5025 442.83 60.1853C442.123 58.8682 441.764 56.3126 441.764 52.5186V49.6366H420.217V86.1688H463.962V72.8056C463.962 68.5726 464.377 65.8481 465.197 64.6435C466.073 63.4389 467.634 62.831 469.891 62.831C471.968 62.831 473.427 63.4051 474.247 64.5647C475.123 65.668 475.561 67.7845 475.561 70.9142V91.6965C475.561 93.6779 475.067 95.1865 474.079 96.2335C473.091 97.2805 471.698 97.7984 469.891 97.7984H401.959H401.948ZM532.87 11.8772C530.512 11.7646 526.571 11.2693 525.527 10.3911C524.539 9.45673 524.045 7.97067 524.045 5.93297C524.045 4.00785 524.516 2.55557 525.437 1.56486C526.425 0.517869 527.851 0 529.715 0H550.442C552.475 0 554.002 0.517869 555.046 1.56486C556.146 2.55557 556.685 4.00785 556.685 5.93297C556.685 7.85809 556 9.25409 554.631 10.3011C553.261 11.3481 551.374 11.8659 548.96 11.8659H546.58L565.252 38.3335L584.655 11.8659H582.106C579.479 11.8659 577.424 11.3481 575.942 10.3011C574.46 9.1978 573.719 7.74551 573.719 5.93297C573.719 4.12043 574.291 2.69067 575.448 1.64367C576.604 0.540385 578.165 0 580.13 0H600.857C602.721 0 604.114 0.517869 605.046 1.56486C606.034 2.55557 606.528 4.00785 606.528 5.93297C606.528 8.02696 605.955 9.53554 604.799 10.47C603.698 11.4044 599.622 11.8772 597.04 11.8772L571.933 47.4976L600.554 86.1688C602.968 86.3377 605.876 86.8894 607.022 87.8238C608.178 88.7582 608.751 90.1091 608.751 91.8654C608.751 93.6216 608.201 95.1415 607.112 96.2335C606.011 97.2805 604.529 97.7984 602.665 97.7984H580.624C577.772 97.7984 575.852 97.3593 574.864 96.4812C573.876 95.6031 573.382 94.0607 573.382 91.8654C573.382 89.6701 573.988 88.2403 575.19 87.4072C576.391 86.5854 578.749 86.1688 582.263 86.1688H586.755L564.579 57.0669L542.729 86.1688H547.557C551.341 86.1688 553.889 86.5854 555.203 87.4072C556.517 88.2291 557.179 89.7151 557.179 91.8654C557.179 94.0157 556.663 95.6031 555.619 96.4812C554.574 97.3593 552.632 97.7984 549.78 97.7984H527.907C526.043 97.7984 524.561 97.2805 523.461 96.2335C522.36 95.1302 521.821 93.6779 521.821 91.8654C521.821 90.0529 522.394 88.5893 523.551 87.6549C524.707 86.7205 527.66 86.2251 530.187 86.1688L557.988 47.9929L532.881 11.8772H532.87Z" fill="white"/>
<g style="mix-blend-mode:hard-light">
<path d="M665.375 0V98.5076H762.5V0H665.375ZM756.325 92.3157H671.551V6.19191H756.325V92.3157Z" fill="white"/>
<path d="M701.047 83C687.286 83 679 73.1849 679 59C679 44.8151 687.286 35 701.047 35C714.808 35 723 44.8151 723 59C723 73.1849 714.713 83 701.047 83ZM701.047 76.7516C711.095 76.7516 715.951 68.7198 715.951 58.9864C715.951 49.253 711.108 41.2212 701.047 41.2212C690.985 41.2212 686.062 49.253 686.062 58.9864C686.062 68.7198 690.904 76.7516 701.047 76.7516Z" fill="white"/>
<path d="M737.386 30.3369V36.7287H745.986V42.9446H737.386V82H730.301V42.9446H724V36.7287H730.301V29.6327C730.301 20.397 734.912 18 740.942 18C742.538 18 744.404 18.176 746 18.5281V24.744C739.969 24.2971 737.4 25.1909 737.4 30.3369H737.386Z" fill="white"/>
</g>
<g clip-path="url(#clip0_2091_17)">
<path d="M710.244 285.738C712.035 285.738 713.547 285.93 714.543 286.515C714.566 286.526 714.588 286.537 714.611 286.56C715.148 286.852 715.641 287.325 716.1 287.877C716.581 288.462 717.085 289.205 717.589 290.094L745.268 338.115V296.531H739.882C737.688 296.531 735.862 296.193 734.597 295.327H734.575L734.552 295.293C733.254 294.325 732.683 292.862 732.683 291.129C732.683 289.396 733.119 287.82 734.373 286.92H734.362C734.989 286.436 735.829 286.166 736.769 285.986C737.721 285.817 738.886 285.738 740.24 285.738H757.193C758.76 285.738 760.149 286.121 761.112 287.134L761.134 287.156C762.108 288.158 762.5 289.542 762.5 291.129C762.5 292.885 762.03 294.415 760.764 295.349C760.753 295.349 760.753 295.349 760.742 295.372C760.137 295.822 759.376 296.092 758.536 296.272C757.775 296.43 756.89 296.508 755.883 296.531V355.164C755.883 356.436 755.603 357.64 754.662 358.406C754.651 358.417 754.64 358.428 754.629 358.428C754.147 358.822 753.486 359.025 752.837 359.137C752.132 359.261 751.281 359.317 750.284 359.317C749.288 359.317 748.47 359.295 747.821 359.227C747.239 359.171 746.645 359.081 746.22 358.867C746.208 358.856 746.186 358.856 746.175 358.844C745.895 358.709 745.671 358.507 745.492 358.327C745.302 358.124 745.1 357.888 744.898 357.607C744.484 357.055 744.014 356.312 743.465 355.378L714.14 304.566V347.748H720.399C722.583 347.748 724.386 348.063 725.584 348.907C726.882 349.808 727.431 351.271 727.431 352.97C727.431 354.771 726.95 356.335 725.662 357.269C725.035 357.719 724.15 357.978 723.176 358.135C722.169 358.293 720.926 358.372 719.459 358.372H701.924C700.335 358.372 698.935 357.967 697.938 356.976C696.953 355.975 696.55 354.568 696.55 352.97C696.55 351.259 696.975 349.729 698.196 348.862L698.207 348.851C698.812 348.423 699.584 348.153 700.446 347.996C701.32 347.827 702.372 347.748 703.57 347.748H703.582V296.531H703.223C701.533 296.531 700.088 296.452 698.901 296.283C697.726 296.115 696.718 295.856 695.956 295.451H695.945C694.367 294.561 693.661 293.02 693.661 291.129C693.661 289.396 694.266 287.933 695.643 287.044C696.931 286.2 698.812 285.851 701.096 285.851L710.244 285.738Z" fill="white"/>
<path d="M669.968 348.862C669.386 348.434 668.647 348.164 667.83 347.996C667.001 347.827 666.027 347.748 664.919 347.748H664.672L641.875 290.476H641.864C641.215 288.889 640.408 287.584 639.378 286.852C639.401 286.864 639.356 286.83 639.378 286.852C638.818 286.425 638.079 286.143 637.284 285.975C636.456 285.806 635.471 285.738 634.351 285.738H617.522C615.607 285.738 614.028 285.817 612.797 285.986C611.621 286.143 610.568 286.402 609.897 286.897C608.643 287.798 608.195 289.362 608.195 291.129C608.195 292.896 608.743 294.426 610.076 295.372L610.098 295.394H610.121C611.397 296.227 613.379 296.531 615.809 296.531H622.807L603.582 347.748H603.234C602.003 347.748 600.95 347.827 600.055 347.996C599.181 348.153 598.397 348.423 597.793 348.851C596.55 349.751 596.091 351.259 596.091 352.97C596.091 354.68 596.539 356.312 597.77 357.246H597.782L597.793 357.269C598.409 357.708 599.226 357.967 600.122 358.135C601.051 358.293 602.171 358.372 603.47 358.372H619C620.467 358.372 621.709 358.293 622.717 358.135C623.691 357.978 624.565 357.719 625.192 357.269H625.203C626.479 356.335 626.961 354.771 626.961 352.97C626.961 351.169 626.412 349.762 625.046 348.896C625.035 348.896 625.035 348.896 625.024 348.896C624.374 348.457 623.535 348.187 622.583 348.018C621.609 347.849 620.455 347.759 619.112 347.759H614.98L619.246 335.886H647.698L652.523 347.759H648.694C647.373 347.759 646.231 347.849 645.268 348.018C644.316 348.187 643.488 348.468 642.827 348.896H642.816C641.495 349.774 640.957 351.248 640.957 352.97C640.957 354.692 641.416 356.312 642.648 357.246L642.67 357.269H642.693C643.331 357.73 644.238 357.978 645.245 358.135C646.287 358.293 647.586 358.372 649.108 358.372H665.165C666.24 358.372 667.18 358.293 667.986 358.124C668.77 357.955 669.498 357.685 670.058 357.235L670.08 357.213C671.211 356.267 671.603 354.714 671.603 352.97C671.603 351.226 671.178 349.774 669.98 348.862H669.968ZM623.008 325.735L632.918 298.534L643.891 325.735H623.008Z" fill="white"/>
<path d="M566.923 345.193C566.923 346.713 566.318 348.108 565.243 349.369C564.213 350.584 562.388 351.968 559.869 353.555C559.858 353.555 559.858 353.566 559.846 353.566C556.476 355.795 553.05 357.438 549.601 358.496C546.141 359.565 542.514 360.094 538.707 360.094C528.685 360.094 520.355 356.526 513.793 349.402C507.232 342.245 503.985 333.118 503.985 322.111C503.985 311.105 507.277 302.102 513.905 294.82C520.545 287.539 528.909 283.893 538.942 283.893C541.629 283.893 544.35 284.219 547.104 284.872C549.59 285.457 552.165 286.278 554.853 287.37C555.267 286.627 555.804 286.02 556.487 285.603C557.45 285.007 558.704 284.782 560.138 284.782C561.739 284.782 563.172 285.176 564.068 286.256C564.538 286.819 564.807 287.573 564.975 288.383C565.143 289.216 565.445 306.761 565.445 306.761C565.423 308.584 565.109 310.159 564.202 311.127V311.15L564.18 311.161C563.217 312.118 561.716 312.433 560.026 312.433C558.424 312.433 557.047 311.848 555.972 310.677C554.953 309.552 554.27 307.954 553.856 306.007C553.856 305.996 553.845 305.973 553.845 305.962C553.565 304.881 553.363 304.049 553.207 303.475V303.452C552.535 300.796 550.934 298.602 548.302 296.88C545.671 295.113 542.57 294.213 538.942 294.213C532.291 294.213 527.028 296.655 523.031 301.516C519.034 306.378 516.973 312.962 516.973 321.402C516.973 329.843 519.056 336.438 523.087 341.322C527.163 346.161 532.481 348.581 539.177 348.581C541.36 348.581 543.577 348.277 545.85 347.669C548.123 347.028 550.351 346.082 552.557 344.811H552.58L552.591 344.788C553.587 344.27 554.987 343.381 556.823 342.087C556.823 342.087 556.834 342.087 556.834 342.076C557.786 341.401 558.615 340.86 559.354 340.489C560.048 340.129 560.776 339.859 561.436 339.859C562.926 339.859 564.236 340.377 565.266 341.401C565.277 341.412 565.288 341.423 565.299 341.434C566.374 342.425 566.923 343.708 566.923 345.193Z" fill="white"/>
<path d="M474.559 352.97C474.559 354.771 474.089 356.335 472.801 357.269H472.79C472.163 357.73 471.256 357.978 470.248 358.135C469.207 358.293 467.908 358.372 466.363 358.372H427.745C426.144 358.372 424.744 357.967 423.725 356.999C422.684 355.997 422.258 354.59 422.258 352.97C422.258 351.237 422.717 349.706 424.039 348.84C424.05 348.828 424.061 348.828 424.072 348.817C424.722 348.389 425.606 348.142 426.614 347.984C427.666 347.827 428.976 347.748 430.522 347.748H442.738V296.531H430.522C429.01 296.531 427.734 296.452 426.692 296.295C425.673 296.137 424.778 295.889 424.117 295.462L424.095 295.439C422.762 294.505 422.258 292.941 422.258 291.129C422.258 289.508 422.661 288.079 423.725 287.111L423.747 287.089C424.778 286.132 426.222 285.738 427.857 285.738H469.129C470.708 285.738 472.096 286.132 473.092 287.111C473.092 287.111 473.1 287.119 473.115 287.134C474.145 288.124 474.559 289.531 474.559 291.129C474.559 292.941 474.055 294.505 472.723 295.439H472.712C472.074 295.889 471.178 296.137 470.17 296.295C469.14 296.452 467.863 296.531 466.363 296.531H454.136V347.748H466.363C467.908 347.748 469.207 347.827 470.248 347.984C471.234 348.142 472.118 348.389 472.745 348.817C472.757 348.828 472.779 348.84 472.79 348.851C474.089 349.706 474.559 351.248 474.559 352.97Z" fill="white"/>
<path d="M391.803 348.93C391.803 348.93 391.78 348.918 391.769 348.907C390.616 348.052 388.779 347.748 386.574 347.748H385.23L373.697 329.989H373.686V329.967C372.913 328.819 372.062 327.806 371.178 326.951C371.189 326.951 371.178 326.939 371.178 326.951C370.876 326.635 370.562 326.343 370.237 326.084C374.324 324.711 377.627 322.561 380.113 319.635C383.091 316.135 384.581 311.96 384.581 307.155C384.581 303.61 383.763 300.301 382.151 297.206V297.195C380.583 294.1 378.389 291.613 375.589 289.722C373.395 288.237 370.719 287.224 367.617 286.65C364.549 286.031 359.97 285.738 353.946 285.738H329.033C327.487 285.738 326.121 286.11 325.125 287.055H325.114L325.102 287.078C324.151 288.034 323.77 289.373 323.77 290.893C323.77 292.614 324.263 294.145 325.595 294.989C326.233 295.394 327.118 295.631 328.114 295.777C329.145 295.923 330.421 296.002 331.921 296.002H334.228V347.748H329.973C328.081 347.748 326.468 348.074 325.371 348.952C324.218 349.875 323.77 351.327 323.77 352.97C323.77 354.613 324.184 355.93 325.147 356.954H325.158L325.17 356.976C326.144 357.955 327.499 358.372 329.033 358.372H348.862C350.049 358.372 351.091 358.293 351.964 358.113C352.826 357.933 353.61 357.652 354.214 357.19C355.435 356.256 355.894 354.726 355.894 352.97C355.894 351.214 355.323 349.796 353.979 348.896C352.737 348.063 350.833 347.748 348.515 347.748H345.615V327.862H352.356C354.685 327.862 356.431 328.357 357.686 329.213H357.697C359.029 330.113 360.843 332.217 363.172 335.729H363.161L374.503 353.004L374.526 353.026V353.06C374.683 353.24 374.873 353.443 375.086 353.668C376.978 356.549 379.139 358.372 381.636 358.372H388.309C389.832 358.372 391.187 357.967 392.139 356.954C393.102 355.93 393.505 354.545 393.505 352.97C393.505 351.293 393.046 349.841 391.825 348.93H391.803ZM368.446 314.965C365.971 316.743 362.108 317.722 356.7 317.722H345.593V296.002H357.047C362.332 296.002 366.106 296.992 368.547 298.804C370.932 300.571 372.174 303.205 372.174 306.918C372.174 310.632 370.898 313.198 368.446 314.965Z" fill="white"/>
<path d="M271.794 303.891V296.531H242.614V314.279H255.849V312.264C255.849 310.103 256.118 308.314 256.868 307.188V307.166L256.89 307.155C257.764 305.917 259.186 305.433 260.809 305.433C262.433 305.433 263.799 305.984 264.583 307.324C264.594 307.346 264.605 307.357 264.616 307.38C265.008 308.01 265.221 308.865 265.366 309.844C265.523 310.869 265.59 312.129 265.59 313.626V324.666C265.59 326.174 265.523 327.457 265.366 328.481C265.232 329.471 264.997 330.361 264.571 330.991C263.732 332.251 262.31 332.735 260.686 332.735C259.063 332.735 257.585 332.15 256.767 330.754V330.732L256.756 330.721C256.409 330.068 256.185 329.224 256.051 328.245C255.916 327.254 255.849 326.061 255.849 324.666V323.709H242.614V347.748H271.794V339.262C271.794 337.709 271.872 336.393 272.029 335.346C272.185 334.322 272.432 333.399 272.868 332.758V332.735L272.891 332.724C273.82 331.441 275.377 330.957 277.168 330.957C278.814 330.957 280.303 331.441 281.177 332.656C281.199 332.656 281.165 332.645 281.177 332.656C281.636 333.242 281.927 334.007 282.095 334.84C282.274 335.695 282.352 336.73 282.352 337.901V352.857C282.352 354.455 281.96 355.862 280.986 356.898C280.012 357.922 278.68 358.372 277.168 358.372H225.617C224.027 358.372 222.628 357.967 221.598 356.999L221.575 356.976C220.59 355.975 220.187 354.568 220.187 352.97C220.187 351.237 220.635 349.706 221.911 348.84C221.911 348.84 221.922 348.84 221.922 348.828C222.572 348.401 223.467 348.142 224.486 347.984C225.539 347.827 226.849 347.748 228.394 347.748H231.048V296.531H228.394C226.883 296.531 225.606 296.452 224.565 296.295C223.546 296.137 222.65 295.889 221.989 295.462L221.967 295.439H221.945C220.668 294.494 220.187 292.93 220.187 291.129C220.187 289.508 220.579 288.079 221.598 287.111C222.628 286.132 224.083 285.738 225.729 285.738H277.168C278.724 285.738 280.079 286.222 281.009 287.348C281.009 287.359 281.031 287.381 281.042 287.393C281.983 288.462 282.352 289.936 282.352 291.613V305.613C282.352 307.695 282.072 309.451 281.244 310.565C280.348 311.769 278.848 312.197 277.168 312.197C275.377 312.197 273.82 311.713 272.891 310.43H272.88L272.868 310.407C272.432 309.754 272.185 308.843 272.029 307.819C271.872 306.761 271.794 305.444 271.794 303.891Z" fill="white"/>
<path d="M183.898 352.97C183.898 354.545 183.494 355.93 182.531 356.954H182.52L182.509 356.976C181.524 357.955 180.18 358.372 178.646 358.372H162.052C160.865 358.372 159.835 358.293 158.951 358.113C158.089 357.933 157.316 357.652 156.711 357.19C155.491 356.256 155.032 354.726 155.032 352.97C155.032 351.214 155.614 349.672 157.047 348.806C157.719 348.401 158.604 348.142 159.611 347.984C160.63 347.827 161.862 347.748 163.295 347.748H164.684L163.631 304.139L153.968 332.33H153.957C153.341 334.097 152.512 335.492 151.382 336.314C150.239 337.147 148.661 337.484 146.824 337.484C144.988 337.484 143.521 337.147 142.39 336.314H142.368L142.357 336.291C141.248 335.436 140.442 334.052 139.86 332.33L130.04 304.105L129.133 347.748H131.944C134.295 347.748 136.221 348.063 137.464 348.896C138.807 349.796 139.378 351.248 139.378 352.97C139.378 354.692 138.919 356.256 137.699 357.19C137.094 357.652 136.31 357.933 135.437 358.113C134.553 358.293 133.5 358.372 132.302 358.372H115.764C114.208 358.372 112.83 357.967 111.845 356.976H111.834L111.823 356.954C110.882 355.952 110.513 354.557 110.513 352.97C110.513 351.237 110.983 349.695 112.304 348.84C112.315 348.828 112.315 348.817 112.327 348.828C112.942 348.401 113.76 348.153 114.678 347.996C115.619 347.827 116.749 347.748 118.071 347.748H118.283L119.929 296.002C117.847 295.979 116.122 295.709 115.025 294.978L115.003 294.955C113.76 294.066 113.301 292.581 113.301 290.893C113.301 289.418 113.67 288.102 114.611 287.156C114.611 287.156 114.618 287.149 114.633 287.134C115.563 286.143 116.85 285.738 118.317 285.738H128.002C129.895 285.738 131.529 286.065 132.739 286.864C132.739 286.864 132.75 286.864 132.75 286.875C133.982 287.674 134.855 288.923 135.426 290.51H135.437L147.295 324.61L158.94 290.532V290.51L158.962 290.487C159.567 288.923 160.429 287.674 161.627 286.875H161.638C162.881 286.065 164.516 285.738 166.441 285.738H176.116C177.571 285.738 178.836 286.143 179.743 287.134C179.755 287.145 179.777 287.168 179.788 287.179C180.706 288.124 181.076 289.43 181.076 290.893C181.076 292.581 180.617 294.066 179.374 294.955H179.363C178.781 295.372 178.042 295.619 177.224 295.766C176.452 295.912 175.533 295.991 174.503 296.002L176.082 347.748H176.362C177.672 347.748 178.814 347.827 179.755 347.996C180.662 348.153 181.479 348.401 182.095 348.817C182.106 348.828 182.117 348.828 182.128 348.84C183.438 349.706 183.909 351.237 183.909 352.97H183.898Z" fill="white"/>
<path d="M78.3887 348.862C77.8065 348.434 77.0675 348.164 76.2501 347.996C75.4215 347.827 74.4474 347.748 73.3389 347.748H73.1037L50.2955 290.476C49.6461 288.889 48.8399 287.584 47.8098 286.852C47.25 286.425 46.4998 286.143 45.7048 285.975C44.8762 285.806 43.8909 285.738 42.7712 285.738H25.9422C24.0275 285.738 22.4487 285.817 21.2171 285.986C20.0414 286.143 18.9889 286.402 18.317 286.897C17.063 287.798 16.6151 289.362 16.6151 291.129C16.6151 292.896 17.1638 294.426 18.5074 295.372V295.394L18.541 295.405C19.8174 296.227 21.7993 296.531 24.229 296.531H31.2271L11.9908 347.748H11.6437C10.4232 347.748 9.35948 347.827 8.46372 347.996C7.59036 348.153 6.80657 348.423 6.20194 348.851C4.95908 349.751 4.5 351.259 4.5 352.97C4.5 354.68 4.94788 356.312 6.17954 357.246H6.19074V357.269C6.80657 357.708 7.62395 357.967 8.5309 358.135C9.44905 358.293 10.5687 358.372 11.8676 358.372H27.3978C28.8646 358.372 30.1074 358.293 31.1152 358.135C32.0893 357.978 32.9627 357.719 33.5897 357.269H33.6009C34.8885 356.335 35.3588 354.771 35.3588 352.97C35.3588 351.169 34.8102 349.762 33.4441 348.896C33.4329 348.896 33.4329 348.896 33.4217 348.896C32.7723 348.457 31.9325 348.187 30.9808 348.018C30.0179 347.849 28.8534 347.759 27.5097 347.759H23.3781L27.6441 335.886H56.0956L60.9215 347.759H57.0921C55.7709 347.759 54.6288 347.849 53.6658 348.018C52.7141 348.187 51.8855 348.468 51.2249 348.896H51.2137C49.8925 349.774 49.3662 351.248 49.3662 352.97C49.3662 354.692 49.8141 356.312 51.0457 357.246L51.0681 357.269H51.0905C51.74 357.73 52.6357 357.978 53.6434 358.135C54.6847 358.293 55.9836 358.372 57.5064 358.372H73.5628C74.6377 358.372 75.5783 358.293 76.3844 358.124C77.1682 357.955 77.896 357.685 78.4559 357.235L78.4783 357.213C79.6092 356.267 80.0011 354.714 80.0011 352.97C80.0011 351.226 79.5756 349.774 78.3775 348.862H78.3887ZM31.4287 325.735L41.338 298.534L52.311 325.735H31.4287Z" fill="white"/>
</g>
<g clip-path="url(#clip1_2091_17)">
<path d="M27.3255 633.681C29.0804 633.85 30.8129 633.985 32.5116 634.097C34.2665 634.154 35.9765 634.176 37.6189 634.176C51.1297 634.176 61.0181 631.162 67.2842 625.112C73.6065 619.072 76.7564 609.547 76.7564 596.524C76.7564 583.501 73.5952 573.953 67.2842 568.026C60.9619 562.043 50.8597 559.051 36.9664 559.051C34.3903 559.051 32.4103 559.074 31.0379 559.13C29.7217 559.186 28.4842 559.299 27.3255 559.456V633.67V633.681ZM27.3255 645.299H10.5973C8.56112 645.299 7.03117 644.804 5.98495 643.814C4.99498 642.825 4.5 641.34 4.5 639.361C4.5 637.224 5.07373 635.739 6.23244 634.907C7.43615 634.086 9.69733 633.67 12.9935 633.67H14.4784V559.467H13.1622C9.86607 559.467 7.5824 559.029 6.32244 558.152C5.11873 557.274 4.51125 555.734 4.51125 553.541C4.51125 551.505 5.00623 550.032 5.9962 549.098C7.04242 548.109 8.62861 547.614 10.7773 547.614H45.5499C59.2294 547.614 70.1303 552.034 78.2638 560.873C86.3973 569.657 90.4584 581.544 90.4584 596.535C90.4584 603.834 89.2772 610.615 86.9148 616.879C84.6086 623.144 81.2337 628.632 76.7789 633.355C72.6615 637.64 67.6329 640.766 61.7044 642.746C55.8321 644.669 48.2498 645.625 38.9689 645.625C37.8664 645.625 35.999 645.569 33.3665 645.456C30.7904 645.344 28.7767 645.287 27.348 645.287L27.3255 645.299ZM146.842 645.299H142.972C140.992 645.299 139.484 644.804 138.438 643.814C137.448 642.825 136.953 641.34 136.953 639.361C136.953 637.168 137.527 635.683 138.686 634.907C139.889 634.086 142.612 633.67 146.842 633.67H152.118V559.467H146.842C142.724 559.467 140.036 559.051 138.764 558.23C137.561 557.353 136.953 555.79 136.953 553.529C136.953 551.494 137.448 550.021 138.438 549.087C139.484 548.097 141.048 547.603 143.129 547.603H214.891C216.758 547.603 218.153 548.176 219.098 549.335C220.088 550.437 220.583 552.056 220.583 554.193V573.638C220.583 576.494 220.167 578.474 219.345 579.564C218.524 580.667 217.039 581.206 214.891 581.206C212.641 581.206 211.077 580.599 210.188 579.396C209.367 578.192 208.951 575.471 208.951 571.242V559.467H165.111V587.223H186.699V582.86C186.699 579.891 187.081 577.833 187.858 576.685C188.679 575.527 190.085 574.953 192.065 574.953C194.045 574.953 195.305 575.583 196.025 576.843C196.79 578.046 197.184 580.689 197.184 584.749V600.066C197.184 604.182 196.801 606.825 196.025 607.972C195.26 609.131 193.888 609.704 191.908 609.704C189.928 609.704 188.555 609.041 187.79 607.725C187.081 606.409 186.721 603.856 186.721 600.066V597.187H165.133V633.681H208.973V620.343C208.973 616.115 209.389 613.393 210.211 612.19C211.088 610.975 212.652 610.379 214.913 610.379C216.994 610.379 218.457 610.953 219.278 612.111C220.155 613.213 220.594 615.327 220.594 618.454V639.215C220.594 641.194 220.099 642.701 219.109 643.747C218.119 644.793 216.724 645.31 214.902 645.31H146.842V645.299ZM297.294 641.565C297.294 644.939 297.294 646.592 296.315 647.525C295.325 648.515 293.762 649.01 291.613 649.01C289.307 649.01 287.574 648.324 286.427 646.952C285.324 645.636 284.695 643.466 284.537 640.44L283.468 621.333V619.848C283.468 617.217 283.963 615.35 284.953 614.248C285.999 613.146 287.698 612.606 290.061 612.606C293.357 612.606 293.773 614.068 296.18 620.208C298.588 626.349 302.93 632.579 308.555 634.828C314.18 637.078 317.251 637.078 323.022 637.078C330.109 637.078 335.847 635.402 340.245 632.051C344.689 628.699 346.916 624.414 346.916 619.196C346.916 614.855 345.544 611.369 342.799 608.737C340.11 606.106 336.15 604.396 330.931 603.631L318.736 601.989C307.363 600.392 299.072 597.401 293.852 593.015C288.632 588.618 286.022 582.443 286.022 574.481C286.022 566.08 289.487 559.029 296.405 553.316C303.38 547.603 312.065 544.746 322.437 544.746C325.463 544.746 328.647 545.162 331.999 545.983C335.352 546.748 340.268 549.11 344.498 550.819C343.429 549.368 343.429 548.244 345.679 547.119C347.929 545.994 353.553 545.994 353.553 548.244C353.553 549.829 356.928 568.577 356.928 569.612C356.928 571.861 356.006 573.132 354.903 574.234C353.801 575.28 352.271 575.797 350.291 575.797C347.377 575.797 346.252 573.761 344.655 569.701C343.89 567.396 343.114 565.664 342.349 564.506C340.538 561.762 337.928 559.647 334.519 558.163C331.11 556.678 326.116 555.936 321.773 555.936C315.125 555.936 309.714 557.578 305.54 560.873C301.423 564.168 299.364 568.476 299.364 573.806C299.364 577.979 300.905 581.274 303.976 583.692C307.104 586.11 311.862 587.752 318.23 588.629L331.414 590.271C340.976 591.53 348.165 594.477 353.002 599.088C357.84 603.643 360.258 609.828 360.258 617.622C360.258 626.844 356.827 634.266 349.965 639.856C343.103 645.4 333.923 648.178 322.448 648.178C318.488 648.178 314.562 647.717 310.67 646.783C306.766 645.85 301.816 644.939 297.317 641.565H297.294ZM473.97 633.681C478.199 633.681 480.888 634.097 482.047 634.918C483.25 635.683 483.858 637.168 483.858 639.372C483.858 641.576 483.25 643.184 482.047 644.062C480.888 644.883 478.199 645.299 473.97 645.299H420.084C418.104 645.299 416.596 644.804 415.55 643.814C414.504 642.825 413.987 641.34 413.987 639.361C413.987 637.168 414.594 635.683 415.798 634.907C417.001 634.086 419.724 633.67 423.954 633.67H442.572V559.467H423.954C419.836 559.467 417.148 559.051 415.876 558.23C414.616 557.353 413.987 555.79 413.987 553.529C413.987 551.494 414.504 550.021 415.55 549.087C416.596 548.097 418.16 547.603 420.241 547.603H477.839C479.819 547.603 481.304 548.097 482.294 549.087C483.34 550.077 483.858 551.561 483.858 553.529C483.858 555.779 483.228 557.342 481.968 558.23C480.764 559.051 478.098 559.467 473.981 559.467H455.363V633.681H473.981H473.97ZM603.475 631.128V611.526H583.046C581.404 611.526 580.166 611.088 579.334 610.21C578.569 609.333 578.175 607.984 578.175 606.173C578.175 604.081 578.535 602.664 579.244 601.888C579.964 601.123 581.336 600.741 583.361 600.741H618.955C620.383 600.741 621.43 601.202 622.082 602.136C622.802 603.013 623.151 604.362 623.151 606.173C623.151 608.209 622.69 609.603 621.756 610.379C620.878 611.144 619.281 611.538 616.975 611.538H615.906V636.335C615.906 637.82 615.737 638.866 615.411 639.462C615.085 640.013 614.421 640.564 613.431 641.115C610.304 642.982 605.736 644.579 599.752 645.895C593.767 647.211 587.692 647.874 581.538 647.874C566.813 647.874 554.922 643.184 545.866 633.794C536.81 624.403 532.276 612.156 532.276 597.052C532.276 581.949 536.697 569.488 545.54 559.659C554.438 549.829 565.755 544.915 579.491 544.915C583.226 544.915 586.961 545.353 590.696 546.231C594.487 547.052 598.413 548.311 602.474 550.021C603.025 548.592 603.768 547.58 604.702 546.973C605.691 546.309 606.951 545.983 608.493 545.983C611.069 545.983 612.779 546.748 613.6 548.289C614.477 549.829 614.916 553.372 614.916 558.916V570.118C614.916 572.805 614.455 574.706 613.521 575.797C612.587 576.843 610.967 577.36 608.661 577.36C605.804 577.36 603.745 575.606 602.485 572.086C602.047 571.04 601.687 570.241 601.417 569.701C599.38 565.36 596.478 562.009 592.687 559.647C588.896 557.286 584.553 556.105 579.671 556.105C569.839 556.105 561.987 559.67 556.103 566.811C550.22 573.896 547.283 583.478 547.283 595.557C547.283 607.635 550.523 617.937 557.003 625.292C563.483 632.647 572.111 636.335 582.877 636.335C586.005 636.335 589.222 635.919 592.518 635.098C595.871 634.277 599.527 632.962 603.475 631.14V631.128ZM695.013 633.681H705.318C708.288 633.681 710.403 634.12 711.663 634.997C712.923 635.874 713.553 637.336 713.553 639.361C713.553 641.61 712.945 643.173 711.742 644.05C710.583 644.871 708.007 645.287 704.002 645.287H679.534C677.554 645.287 676.069 644.793 675.079 643.803C674.089 642.813 673.594 641.329 673.594 639.349C673.594 637.156 674.145 635.672 675.237 634.896C676.395 634.075 678.589 633.659 681.829 633.659H683.393V559.467H681.334C676.722 559.467 673.583 559.029 671.94 558.152C670.343 557.274 669.556 555.734 669.556 553.541C669.556 551.505 670.242 550.054 671.614 549.177C673.043 548.244 675.315 547.783 678.454 547.783C678.454 547.783 679.005 547.76 680.096 547.704C681.199 547.648 682.29 547.625 683.393 547.625H691.144C693.675 547.625 695.43 547.929 696.42 548.525C697.466 549.076 698.67 550.527 700.042 552.888L741.564 624.549V559.467H732.497C729.527 559.467 727.356 558.995 725.984 558.073C724.668 557.083 724.004 555.576 724.004 553.541C724.004 551.291 724.578 549.751 725.736 548.93C726.895 548.052 729.302 547.614 732.992 547.614H756.639C758.619 547.614 760.07 548.109 761.004 549.098C761.994 550.088 762.489 551.573 762.489 553.541C762.489 555.734 761.881 557.274 760.678 558.152C759.519 559.029 757.381 559.467 754.254 559.467H753.264V642.42C753.264 644.017 752.882 645.108 752.105 645.715C751.385 646.322 749.687 646.626 746.998 646.626C744.309 646.626 742.633 646.457 741.969 646.131C741.362 645.861 740.316 644.455 738.842 641.936L695.002 566.406V633.704L695.013 633.681Z" fill="white"/>
</g>
<g style="mix-blend-mode:hard-light">
<path d="M4.34617 814V771.1H11.7262L25.1662 806.74H25.2862L38.7262 771.1H46.1062V814H40.7062V778.72H40.5862L27.6262 814H22.8262L9.86617 778.72H9.74617V814H4.34617ZM72.1509 791.2C72.1509 788.8 70.8309 786.76 65.9109 786.76C60.0909 786.76 58.1709 788.44 57.8709 792.88H53.0709C53.3709 787 57.0309 782.56 65.9109 782.56C71.7309 782.56 76.9509 784.84 76.9509 792.22V807.1C76.9509 809.5 77.3709 810.82 80.4309 810.46V813.82C79.1709 814.24 78.5109 814.3 77.6109 814.3C74.7309 814.3 72.9909 813.52 72.1509 810.16H72.0309C70.1109 813.04 66.6909 814.84 61.6509 814.84C55.4709 814.84 51.5709 811.3 51.5709 806.14C51.5709 799.18 56.7309 797.38 64.6509 795.88C69.8109 794.92 72.1509 794.26 72.1509 791.2ZM62.1309 810.64C67.8309 810.64 72.1509 808.06 72.1509 802.18V797.08C71.2509 797.98 68.3109 798.82 65.0709 799.48C59.1309 800.74 56.3709 802.24 56.3709 805.9C56.3709 808.9 58.1709 810.64 62.1309 810.64ZM84.0168 771.1H88.8168V796.54L102.857 783.4H108.857L96.9168 794.74L110.117 814H104.417L93.5568 797.56L88.8168 801.94V814H84.0168V771.1ZM116.372 777.46C115.052 777.46 113.372 776.44 113.372 774.58C113.372 772.72 115.052 771.7 116.372 771.7C117.752 771.7 119.372 772.72 119.372 774.58C119.372 776.44 117.752 777.46 116.372 777.46ZM113.972 783.4H118.772V814H113.972V783.4ZM140.97 782.56C146.55 782.56 151.23 785.62 151.23 792.64V814H146.43V793.84C146.43 789.88 144.57 786.76 139.77 786.76C134.37 786.76 130.77 790.18 130.77 794.92V814H125.97V783.4H130.77V787.06H130.89C132.51 784.9 135.75 782.56 140.97 782.56ZM179.449 783.4H184.249V812.32C184.249 820.48 179.089 824.62 170.689 824.62C162.289 824.62 157.309 820.18 156.829 814.96H161.629C162.229 818.08 164.749 820.42 170.449 820.42C176.149 820.42 179.449 817.96 179.449 812.26V807.64H179.329C177.529 810.28 174.649 812.44 169.609 812.44C162.049 812.44 155.929 807.58 155.929 797.5C155.929 787.42 162.049 782.56 169.609 782.56C174.649 782.56 177.529 784.84 179.329 787.18H179.449V783.4ZM170.209 808.24C175.909 808.24 179.449 804.7 179.449 797.5C179.449 790.3 175.909 786.76 170.209 786.76C163.909 786.76 160.729 791.5 160.729 797.5C160.729 803.5 163.909 808.24 170.209 808.24ZM221.565 791.2C221.565 788.8 220.245 786.76 215.325 786.76C209.505 786.76 207.585 788.44 207.285 792.88H202.485C202.785 787 206.445 782.56 215.325 782.56C221.145 782.56 226.365 784.84 226.365 792.22V807.1C226.365 809.5 226.785 810.82 229.845 810.46V813.82C228.585 814.24 227.925 814.3 227.025 814.3C224.145 814.3 222.405 813.52 221.565 810.16H221.445C219.525 813.04 216.105 814.84 211.065 814.84C204.885 814.84 200.985 811.3 200.985 806.14C200.985 799.18 206.145 797.38 214.065 795.88C219.225 794.92 221.565 794.26 221.565 791.2ZM211.545 810.64C217.245 810.64 221.565 808.06 221.565 802.18V797.08C220.665 797.98 217.725 798.82 214.485 799.48C208.545 800.74 205.785 802.24 205.785 805.9C205.785 808.9 207.585 810.64 211.545 810.64ZM248.431 782.56C254.011 782.56 258.691 785.62 258.691 792.64V814H253.891V793.84C253.891 789.88 252.031 786.76 247.231 786.76C241.831 786.76 238.231 790.18 238.231 794.92V814H233.431V783.4H238.231V787.06H238.351C239.971 784.9 243.211 782.56 248.431 782.56ZM297.242 814.84C284.642 814.84 276.242 805.42 276.242 792.52C276.242 779.62 284.642 770.26 297.242 770.26C309.842 770.26 318.242 779.62 318.242 792.52C318.242 805.42 309.842 814.84 297.242 814.84ZM297.242 810.04C308.042 810.04 312.842 801.76 312.842 792.52C312.842 783.28 308.042 775.06 297.242 775.06C286.442 775.06 281.642 783.28 281.642 792.52C281.642 801.76 286.442 810.04 297.242 810.04ZM338.478 782.56C346.158 782.56 352.278 788.62 352.278 798.7C352.278 808.78 346.158 814.84 338.478 814.84C333.558 814.84 330.678 812.56 328.878 810.22H328.758V814H323.958V771.1H328.758V787.36H328.878C330.678 784.72 333.558 782.56 338.478 782.56ZM337.998 810.64C344.298 810.64 347.478 804.7 347.478 798.7C347.478 792.7 344.298 786.76 337.998 786.76C332.298 786.76 328.758 791.5 328.758 798.7C328.758 805.9 332.298 810.64 337.998 810.64ZM369.542 795.82C375.002 797.14 381.182 798.04 381.182 805.6C381.182 811.18 376.082 814.84 369.122 814.84C359.762 814.84 355.442 810.4 355.142 803.8H359.942C360.242 807.22 361.442 810.64 369.122 810.64C374.342 810.64 376.382 807.94 376.382 805.9C376.382 801.46 372.362 801.22 367.982 800.14C363.302 799 356.342 798.46 356.342 791.26C356.342 786.46 360.602 782.56 367.802 782.56C375.422 782.56 379.502 786.88 379.982 792.16H375.182C374.702 789.82 373.562 786.76 367.802 786.76C363.482 786.76 361.142 788.5 361.142 790.9C361.142 794.5 365.282 794.8 369.542 795.82ZM408.139 794.44C407.899 791.08 405.619 786.76 399.499 786.76C392.239 786.76 389.479 792.94 389.479 798.7C389.479 804.46 392.239 810.64 399.499 810.64C405.679 810.64 407.899 806.38 408.139 802.72H412.939C412.519 809.68 407.059 814.84 399.499 814.84C390.559 814.84 384.679 808.3 384.679 798.7C384.679 789.1 390.559 782.56 399.499 782.56C407.059 782.56 412.219 787.6 412.939 794.44H408.139ZM437.812 783.4H442.612V814H437.812V810.34H437.692C436.072 812.5 432.832 814.84 427.612 814.84C422.032 814.84 417.352 811.78 417.352 804.76V783.4H422.152V803.56C422.152 807.52 424.012 810.64 428.812 810.64C434.212 810.64 437.812 807.22 437.812 802.48V783.4ZM462.612 782.56C463.752 782.56 464.592 782.62 465.432 782.74V787.54H465.312C458.652 786.46 454.032 791.14 454.032 797.68V814H449.232V783.4H454.032V789.46H454.152C455.772 785.44 458.232 782.56 462.612 782.56ZM481.646 810.64C487.766 810.64 490.046 806.68 490.586 804.58H495.386C493.826 810.28 489.446 814.84 481.826 814.84C472.526 814.84 466.886 808.3 466.886 798.7C466.886 788.5 472.646 782.56 481.586 782.56C491.186 782.56 495.866 789.1 495.866 799.96H471.686C471.686 805.48 474.986 810.64 481.646 810.64ZM481.586 786.76C475.826 786.76 471.686 790.84 471.686 795.76H491.066C491.066 790.84 487.346 786.76 481.586 786.76ZM544.43 785.26C543.65 781.18 540.53 775.06 531.59 775.06C521.39 775.06 517.13 783.88 517.13 792.52C517.13 801.22 521.39 810.04 531.59 810.04C540.59 810.04 544.07 803.92 544.43 798.52H549.83C548.87 808 542.15 814.84 531.59 814.84C519.83 814.84 511.73 805.48 511.73 792.52C511.73 779.62 519.83 770.26 531.59 770.26C542.09 770.26 548.81 777.1 549.83 785.26H544.43ZM568.429 814.84C559.069 814.84 553.429 808.24 553.429 798.7C553.429 789.16 559.069 782.56 568.429 782.56C577.729 782.56 583.369 789.16 583.369 798.7C583.369 808.24 577.729 814.84 568.429 814.84ZM568.429 810.64C575.269 810.64 578.569 805.24 578.569 798.7C578.569 792.16 575.269 786.76 568.429 786.76C561.529 786.76 558.229 792.16 558.229 798.7C558.229 805.24 561.529 810.64 568.429 810.64ZM588.396 771.1H593.196V814H588.396V771.1ZM599.587 771.1H604.387V814H599.587V771.1ZM624.205 810.64C630.325 810.64 632.605 806.68 633.145 804.58H637.945C636.385 810.28 632.005 814.84 624.385 814.84C615.085 814.84 609.445 808.3 609.445 798.7C609.445 788.5 615.205 782.56 624.145 782.56C633.745 782.56 638.425 789.1 638.425 799.96H614.245C614.245 805.48 617.545 810.64 624.205 810.64ZM624.145 786.76C618.385 786.76 614.245 790.84 614.245 795.76H633.625C633.625 790.84 629.905 786.76 624.145 786.76ZM664.897 794.44C664.657 791.08 662.377 786.76 656.257 786.76C648.997 786.76 646.237 792.94 646.237 798.7C646.237 804.46 648.997 810.64 656.257 810.64C662.437 810.64 664.657 806.38 664.897 802.72H669.697C669.277 809.68 663.817 814.84 656.257 814.84C647.317 814.84 641.437 808.3 641.437 798.7C641.437 789.1 647.317 782.56 656.257 782.56C663.817 782.56 668.977 787.6 669.697 794.44H664.897ZM687.61 787.6H681.61V806.02C681.61 809.5 683.53 810.1 687.61 809.8V814C686.53 814.24 685.27 814.36 684.01 814.36C679.93 814.36 676.81 812.74 676.81 806.5V787.6H672.31V783.4H676.81V773.2H681.61V783.4H687.61V787.6ZM695.63 777.46C694.31 777.46 692.63 776.44 692.63 774.58C692.63 772.72 694.31 771.7 695.63 771.7C697.01 771.7 698.63 772.72 698.63 774.58C698.63 776.44 697.01 777.46 695.63 777.46ZM693.23 783.4H698.03V814H693.23V783.4ZM718.488 814.84C709.128 814.84 703.488 808.24 703.488 798.7C703.488 789.16 709.128 782.56 718.488 782.56C727.788 782.56 733.428 789.16 733.428 798.7C733.428 808.24 727.788 814.84 718.488 814.84ZM718.488 810.64C725.328 810.64 728.628 805.24 728.628 798.7C728.628 792.16 725.328 786.76 718.488 786.76C711.588 786.76 708.288 792.16 708.288 798.7C708.288 805.24 711.588 810.64 718.488 810.64ZM753.275 782.56C758.855 782.56 763.535 785.62 763.535 792.64V814H758.735V793.84C758.735 789.88 756.875 786.76 752.075 786.76C746.675 786.76 743.075 790.18 743.075 794.92V814H738.275V783.4H743.075V787.06H743.195C744.815 784.9 748.055 782.56 753.275 782.56Z" fill="white"/>
</g>
<rect x="2" y="846" width="763" height="68" stroke="white" stroke-width="4"/>
<path d="M11.02 903V860.1H26.56C38.38 860.1 45.64 867.78 45.64 881.58C45.64 895.38 38.38 903 26.56 903H11.02ZM16.42 864.9V898.2H26.56C37.48 898.2 40.24 889.98 40.24 881.58C40.24 873.18 37.48 864.9 26.56 864.9H16.42ZM54.9156 866.46C53.5956 866.46 51.9156 865.44 51.9156 863.58C51.9156 861.72 53.5956 860.7 54.9156 860.7C56.2956 860.7 57.9156 861.72 57.9156 863.58C57.9156 865.44 56.2956 866.46 54.9156 866.46ZM52.5156 872.4H57.3156V903H52.5156V872.4ZM77.5333 884.82C82.9933 886.14 89.1733 887.04 89.1733 894.6C89.1733 900.18 84.0733 903.84 77.1133 903.84C67.7533 903.84 63.4333 899.4 63.1333 892.8H67.9333C68.2333 896.22 69.4333 899.64 77.1133 899.64C82.3333 899.64 84.3733 896.94 84.3733 894.9C84.3733 890.46 80.3533 890.22 75.9733 889.14C71.2933 888 64.3333 887.46 64.3333 880.26C64.3333 875.46 68.5933 871.56 75.7933 871.56C83.4133 871.56 87.4933 875.88 87.9733 881.16H83.1733C82.6933 878.82 81.5533 875.76 75.7933 875.76C71.4733 875.76 69.1333 877.5 69.1333 879.9C69.1333 883.5 73.2733 883.8 77.5333 884.82ZM116.73 883.44C116.49 880.08 114.21 875.76 108.09 875.76C100.83 875.76 98.0702 881.94 98.0702 887.7C98.0702 893.46 100.83 899.64 108.09 899.64C114.27 899.64 116.49 895.38 116.73 891.72H121.53C121.11 898.68 115.65 903.84 108.09 903.84C99.1502 903.84 93.2702 897.3 93.2702 887.7C93.2702 878.1 99.1502 871.56 108.09 871.56C115.65 871.56 120.81 876.6 121.53 883.44H116.73ZM139.983 903.84C130.623 903.84 124.983 897.24 124.983 887.7C124.983 878.16 130.623 871.56 139.983 871.56C149.283 871.56 154.923 878.16 154.923 887.7C154.923 897.24 149.283 903.84 139.983 903.84ZM139.983 899.64C146.823 899.64 150.123 894.24 150.123 887.7C150.123 881.16 146.823 875.76 139.983 875.76C133.083 875.76 129.783 881.16 129.783 887.7C129.783 894.24 133.083 899.64 139.983 899.64ZM156.604 872.4H161.824L170.284 898.2H170.344L178.804 872.4H184.024L173.044 903H167.584L156.604 872.4ZM200.475 899.64C206.595 899.64 208.875 895.68 209.415 893.58H214.215C212.655 899.28 208.275 903.84 200.655 903.84C191.355 903.84 185.715 897.3 185.715 887.7C185.715 877.5 191.475 871.56 200.415 871.56C210.015 871.56 214.695 878.1 214.695 888.96H190.515C190.515 894.48 193.815 899.64 200.475 899.64ZM200.415 875.76C194.655 875.76 190.515 879.84 190.515 884.76H209.895C209.895 879.84 206.175 875.76 200.415 875.76ZM233.427 871.56C234.567 871.56 235.407 871.62 236.247 871.74V876.54H236.127C229.467 875.46 224.847 880.14 224.847 886.68V903H220.047V872.4H224.847V878.46H224.967C226.587 874.44 229.047 871.56 233.427 871.56ZM258.761 880.2C258.761 877.8 257.441 875.76 252.521 875.76C246.701 875.76 244.781 877.44 244.481 881.88H239.681C239.981 876 243.641 871.56 252.521 871.56C258.341 871.56 263.561 873.84 263.561 881.22V896.1C263.561 898.5 263.981 899.82 267.041 899.46V902.82C265.781 903.24 265.121 903.3 264.221 903.3C261.341 903.3 259.601 902.52 258.761 899.16H258.641C256.721 902.04 253.301 903.84 248.261 903.84C242.081 903.84 238.181 900.3 238.181 895.14C238.181 888.18 243.341 886.38 251.261 884.88C256.421 883.92 258.761 883.26 258.761 880.2ZM248.741 899.64C254.441 899.64 258.761 897.06 258.761 891.18V886.08C257.861 886.98 254.921 887.82 251.681 888.48C245.741 889.74 242.981 891.24 242.981 894.9C242.981 897.9 244.781 899.64 248.741 899.64ZM285.747 871.56C293.427 871.56 299.547 877.62 299.547 887.7C299.547 897.78 293.427 903.84 285.747 903.84C280.827 903.84 277.947 901.56 276.147 899.22H276.027V903H271.227V860.1H276.027V876.36H276.147C277.947 873.72 280.827 871.56 285.747 871.56ZM285.267 899.64C291.567 899.64 294.747 893.7 294.747 887.7C294.747 881.7 291.567 875.76 285.267 875.76C279.567 875.76 276.027 880.5 276.027 887.7C276.027 894.9 279.567 899.64 285.267 899.64ZM305.171 860.1H309.971V903H305.171V860.1ZM330.389 899.64C336.509 899.64 338.789 895.68 339.329 893.58H344.129C342.569 899.28 338.189 903.84 330.569 903.84C321.269 903.84 315.629 897.3 315.629 887.7C315.629 877.5 321.389 871.56 330.329 871.56C339.929 871.56 344.609 878.1 344.609 888.96H320.429C320.429 894.48 323.729 899.64 330.389 899.64ZM330.329 875.76C324.569 875.76 320.429 879.84 320.429 884.76H339.809C339.809 879.84 336.089 875.76 330.329 875.76Z" fill="white"/>
<defs>
<clipPath id="clip0_2091_17">
<rect width="758" height="76.2011" fill="white" transform="translate(4.5 283.893)"/>
</clipPath>
<clipPath id="clip1_2091_17">
<rect width="758" height="104.275" fill="white" transform="translate(4.5 544.725)"/>
</clipPath>
</defs>
</svg>
